<?xml version="1.0" encoding="UTF-8" standalone="no"?>
<!DOCTYPE svg PUBLIC "-//W3C//DTD SVG 1.1//EN" "http://www.w3.org/Graphics/SVG/1.1/DTD/svg11.dtd">
<svg width="100%" height="100%" viewBox="0 0 1448 437" version="1.1" xmlns="http://www.w3.org/2000/svg" xmlns:xlink="http://www.w3.org/1999/xlink" xml:space="preserve" xmlns:serif="http://www.serif.com/" style="fill-rule:evenodd;clip-rule:evenodd;stroke-linejoin:round;stroke-miterlimit:1.41421;">
    <g id="Artboard1" transform="matrix(0.94535,0,0,0.864587,-98.3149,-231.523)">
        <rect x="103.998" y="267.785" width="1530.69" height="505.141" style="fill:none;"/>
        <g transform="matrix(2.11562,0,0,2.31324,-40.802,-97.6097)">
            <path d="M552.254,282.625L552.254,266.617L620.557,266.617L620.557,282.625L591.953,282.625L569.327,282.625L552.254,282.625ZM569.327,292.228L620.77,292.228L620.77,306.53L569.327,306.53L569.327,317.2L620.77,317.2L620.77,332.995L552.254,332.995L552.254,292.228L569.327,292.228ZM732.186,305.891L732.186,332.995L715.324,332.995L715.324,266.617L732.186,266.617L732.186,291.802L734.957,291.802L766.333,266.617L790.451,266.617L749.046,299.059L791.73,332.995L767.826,332.995L734.317,305.891L732.186,305.891ZM650.228,318.913L704.435,318.913L704.435,332.995L633.146,332.995L633.146,266.617L650.228,266.617L650.228,318.913Z" style="fill:rgb(0,33,74);fill-rule:nonzero;"/>
            <rect x="511.914" y="293.08" width="28.817" height="14.73" style="fill:rgb(0,33,74);fill-rule:nonzero;"/>
            <path d="M451.089,293.08L498.259,293.08L498.259,307.81L451.089,307.81L451.089,332.995L434.441,332.995L434.441,293.08L451.089,293.08ZM393.672,317.2C396.235,317.2 398.58,316.773 400.93,315.706C403.062,314.854 404.985,313.788 406.69,312.081C408.4,310.581 409.467,308.875 410.32,306.744C411.386,304.397 411.813,302.044 411.813,299.699C411.813,297.354 411.386,295.007 410.32,292.869C409.467,290.736 408.4,289.03 406.69,287.323C404.985,285.824 403.062,284.757 400.93,283.904C398.58,283.051 396.235,282.625 393.672,282.625L377.665,282.625C375.102,282.625 372.756,283.051 370.407,283.904C368.271,284.757 366.352,285.824 364.859,287.323C363.149,289.03 361.87,290.736 361.017,292.869C360.16,295.007 359.733,297.354 359.733,299.699C359.733,302.044 360.16,304.397 361.017,306.744C362.083,308.875 363.149,310.581 364.859,312.295C366.352,313.788 368.271,314.854 370.407,315.706C372.756,316.773 375.102,317.2 377.665,317.2L393.672,317.2ZM377.665,332.995C372.969,332.995 368.271,332.14 364.002,330.435C359.947,328.729 356.105,326.376 352.906,323.391C349.917,320.192 347.354,316.559 345.648,312.507C343.939,308.236 343.086,303.758 343.086,299.273C343.086,294.574 343.939,290.095 345.648,285.824C347.354,281.985 349.917,278.566 353.119,275.58C356.322,272.595 359.947,270.459 364.002,268.962C368.487,267.47 372.969,266.617 377.665,266.617L393.672,266.617C398.367,266.617 403.062,267.47 407.544,268.962C411.599,270.672 415.441,272.808 418.644,275.793C421.846,278.566 424.195,282.199 425.9,286.037C427.606,290.309 428.464,294.788 428.464,299.273C428.464,303.758 427.606,308.236 425.9,312.507C424.195,316.559 421.633,320.192 418.644,323.391C415.441,326.376 411.599,328.729 407.544,330.435C403.062,332.14 398.367,332.995 393.672,332.995L377.665,332.995ZM261.127,332.995L261.127,317.2L312.993,317.2C314.913,317.2 317.049,316.773 318.328,315.493C319.607,314.64 320.034,313.362 320.034,311.655C320.034,310.369 319.607,308.875 318.541,307.81C317.049,306.744 314.913,306.53 312.993,306.53L282.897,306.53C279.695,306.53 276.496,306.103 273.507,305.037C270.945,304.184 268.382,302.684 266.462,300.765C264.327,299.059 262.834,296.926 261.768,294.574C260.7,292.014 260.058,289.243 260.058,286.462C260.058,283.691 260.7,281.132 261.555,278.566C262.621,276.22 264.113,274.088 266.25,272.169C268.382,270.459 270.731,268.962 273.507,268.11C276.496,267.043 279.695,266.617 283.11,266.617L332.843,266.617L332.843,282.625L283.11,282.625C281.404,282.625 279.695,282.837 278.628,283.904C277.562,284.757 277.349,286.037 277.349,287.537C277.349,288.817 277.562,290.095 278.628,290.949C279.695,292.014 281.404,292.228 282.897,292.228L312.993,292.228C318.968,292.228 325.373,293.294 329.854,297.14C334.549,300.978 336.042,306.744 336.042,312.507C336.042,315.28 335.615,318.052 334.549,320.619C333.696,323.177 332.204,325.31 330.28,327.237C328.145,329.156 325.585,330.648 322.81,331.501C319.821,332.567 316.409,332.995 312.993,332.995L261.127,332.995ZM434.441,282.625L434.441,266.617L498.259,266.617L498.259,282.625L475.421,282.625L451.089,282.625L434.441,282.625Z" style="fill:rgb(0,208,37);"/>
            <path d="M143.599,315.89L147.335,358.922L164.729,371.035L182.51,358.794L186.503,330.062L186.503,314.344L182.638,316.663L176.196,327.615L163.569,332.122L154.292,326.454C154.292,326.454 149.524,321.944 149.397,321.171C149.269,320.4 145.918,316.405 145.918,316.405L143.599,315.89Z" style="fill:rgb(188,167,121);"/>
            <path d="M134.314,276.917C134.314,276.917 124.654,309.693 123.067,332.213C122.894,334.687 123.242,337.372 123.999,340.198L146.524,357.925L151.634,361.821C150.333,356.662 149.243,351.286 148.598,346.004C145.716,322.453 146.1,310.88 146.677,310.205C147.254,309.529 140.187,306.719 134.314,276.917Z" style="fill:rgb(52,33,0);"/>
            <path d="M134.168,295.371C132.609,301.826 131.221,308.329 130.059,314.736C128.992,320.603 128.082,326.606 127.661,332.566C126.842,344.169 137.128,349.62 145.604,355.808C144.895,352.357 144.327,348.964 143.925,345.686C142.838,336.801 142.027,328.645 141.737,319.689C141.674,317.747 141.443,314.258 141.8,311.303C140.19,309.151 139.028,307.271 137.721,304.496C136.368,301.624 135.195,298.543 134.168,295.371Z" style="fill:rgb(131,89,0);"/>
            <path d="M196.851,276.917C196.851,276.917 206.511,309.693 208.097,332.213C208.271,334.687 207.923,337.372 207.166,340.198L184.64,357.925L179.53,361.821C180.831,356.662 181.921,351.286 182.567,346.004C185.449,322.453 185.065,310.88 184.488,310.205C183.91,309.529 190.978,306.719 196.851,276.917Z" style="fill:rgb(52,33,0);"/>
            <path d="M196.997,295.371C198.556,301.826 199.943,308.329 201.106,314.736C202.172,320.603 203.083,326.606 203.504,332.566C204.322,344.169 194.036,349.62 185.561,355.808C186.27,352.357 186.839,348.964 187.24,345.686C188.327,336.801 189.138,328.645 189.428,319.689C189.491,317.747 189.721,314.258 189.365,311.303C190.975,309.151 192.137,307.271 193.444,304.496C194.797,301.624 195.97,298.543 196.997,295.371Z" style="fill:rgb(131,89,0);"/>
            <path d="M94.504,238.049L94.504,236.007L96.551,235.366C99.185,234.54 101.83,233.759 104.486,233.02C107.229,234.947 109.977,236.859 112.654,238.707C109.276,239.569 105.908,240.508 102.553,241.521L102.072,241.665L102.073,242.168C102.084,244.913 102.107,247.727 102.152,250.594C101.591,250.515 101.033,250.425 100.478,250.323C98.337,249.927 96.39,249.205 94.566,248.263C94.519,244.781 94.504,241.367 94.504,238.049ZM103.506,276.881C103.702,278.877 103.926,280.872 104.181,282.86C105.945,296.636 109.186,310.103 115.138,321.45C120.49,331.655 128.039,340.112 136.646,347.5C145.308,354.94 155.041,361.304 164.701,367.291L165.059,367.514L165.419,367.291C175.077,361.303 184.813,354.94 193.474,347.5C202.08,340.112 209.629,331.654 214.981,321.45C220.934,310.103 224.174,296.638 225.938,282.861C226.193,280.872 226.417,278.878 226.614,276.882C228.444,275.541 230.131,274 231.677,272.345C232.729,271.219 233.77,269.97 234.785,268.631C234.482,273.118 234.069,277.63 233.515,282.117C231.644,297.216 228.125,312.01 221.56,324.531C215.55,335.987 207.125,345.366 197.526,353.521C187.979,361.629 177.276,368.524 166.64,375.045L165.059,376.014L163.48,375.045C152.844,368.524 142.141,361.629 132.593,353.521C122.995,345.366 114.57,335.987 108.56,324.531C101.993,312.011 98.474,297.216 96.605,282.117C96.05,277.63 95.637,273.118 95.334,268.631C96.349,269.97 97.39,271.219 98.442,272.345C99.989,273.998 101.676,275.54 103.506,276.881ZM227.967,250.594C228.012,247.729 228.035,244.915 228.046,242.172L228.048,241.665L227.566,241.521C224.211,240.508 220.843,239.569 217.464,238.707C220.141,236.859 222.891,234.947 225.634,233.02C228.289,233.759 230.934,234.54 233.568,235.366L235.616,236.007L235.616,238.049C235.616,241.367 235.601,244.781 235.553,248.263C233.731,249.205 231.781,249.927 229.643,250.323C229.087,250.425 228.529,250.515 227.967,250.594ZM117.918,229.678C121.845,228.817 125.808,228.048 129.798,227.379L129.798,235.009C129.132,235.127 128.464,235.249 127.799,235.372L117.918,229.678ZM138.234,226.122C141.432,225.705 144.642,225.353 147.865,225.068C153.572,224.56 159.3,224.261 165.033,224.177L165.117,224.177C170.837,224.261 176.56,224.56 182.263,225.068C185.483,225.353 188.691,225.706 191.887,226.122L191.887,233.685C188.353,233.197 184.814,232.794 181.281,232.478C175.897,231.996 170.495,231.712 165.09,231.63C159.658,231.712 154.243,231.996 148.855,232.477C145.314,232.792 141.772,233.196 138.234,233.684L138.234,226.122ZM200.31,227.378C204.275,228.042 208.212,228.805 212.117,229.658L202.113,235.332C201.43,235.207 200.748,235.085 200.063,234.964L200.31,227.378Z" style="fill:rgb(0,33,74);fill-rule:nonzero;"/>
            <path d="M196.007,256.822C206.396,249.406 250.404,220.497 255.121,212.832C256.92,209.905 257.868,206.593 257.868,203.06L257.868,171.111C259.991,169.934 261.427,167.672 261.427,165.074C261.427,161.264 258.338,158.175 254.529,158.175C250.719,158.175 247.63,161.264 247.63,165.074C247.63,167.595 248.982,169.8 251.002,171.003L251.002,203.06C251.002,205.587 250.349,207.912 249.112,209.925C247.873,211.941 246.024,213.685 243.641,215.045L242.47,215.714L242.47,187.602C244.58,186.421 246.006,184.166 246.006,181.576C246.006,177.767 242.917,174.678 239.107,174.678C235.297,174.678 232.209,177.767 232.209,181.576C232.209,184.107 233.572,186.32 235.602,187.52L235.602,219.632L226.328,224.925L226.328,197.831C228.388,196.638 229.774,194.41 229.774,191.858C229.774,188.047 226.685,184.958 222.875,184.958C219.065,184.958 215.977,188.047 215.977,191.858C215.977,194.425 217.38,196.664 219.461,197.853L219.461,205.915L213.554,201.788C213.154,201.508 212.858,201.195 212.675,200.858C212.488,200.517 212.393,200.112 212.393,199.654L212.393,184.742C214.528,183.569 215.977,181.299 215.977,178.691C215.977,174.881 212.888,171.792 209.078,171.792C205.267,171.792 202.178,174.881 202.178,178.691C202.178,181.203 203.52,183.398 205.525,184.606L205.525,199.654C205.525,201.022 205.86,202.317 206.506,203.502C207.157,204.689 208.099,205.729 209.315,206.579L219.461,213.666L219.461,228.844L202.006,238.803L202.006,221.231C204.021,220.026 205.371,217.824 205.371,215.304C205.371,211.494 202.283,208.406 198.473,208.406C194.663,208.406 191.574,211.494 191.574,215.304C191.574,217.906 193.013,220.17 195.138,221.345L195.138,242.72L187.618,247.013L196.007,256.822ZM134.112,256.822C123.723,249.406 79.714,220.497 74.998,212.832C73.197,209.905 72.25,206.593 72.25,203.06L72.25,171.111C70.127,169.934 68.691,167.672 68.691,165.074C68.691,161.264 71.779,158.175 75.59,158.175C79.399,158.175 82.488,161.264 82.488,165.074C82.488,167.595 81.136,169.8 79.117,171.003L79.117,203.06C79.117,205.587 79.769,207.912 81.006,209.925C82.245,211.941 84.094,213.685 86.478,215.045L87.648,215.714L87.648,187.602C85.538,186.421 84.112,184.166 84.112,181.576C84.112,177.767 87.201,174.678 91.011,174.678C94.821,174.678 97.91,177.767 97.91,181.576C97.91,184.107 96.547,186.32 94.516,187.52L94.516,219.632L103.791,224.925L103.791,197.831C101.732,196.638 100.345,194.41 100.345,191.858C100.345,188.047 103.434,184.958 107.244,184.958C111.054,184.958 114.143,188.047 114.143,191.858C114.143,194.425 112.739,196.664 110.658,197.853L110.658,205.915L116.564,201.788C116.965,201.508 117.26,201.195 117.444,200.858C117.63,200.517 117.725,200.112 117.725,199.654L117.725,184.742C115.59,183.569 114.143,181.299 114.143,178.691C114.143,174.881 117.231,171.792 121.041,171.792C124.852,171.792 127.94,174.881 127.94,178.691C127.94,181.203 126.599,183.398 124.594,184.606L124.594,199.654C124.594,201.022 124.259,202.317 123.614,203.502C122.961,204.689 122.019,205.729 120.804,206.579L110.658,213.666L110.658,228.844L128.112,238.803L128.112,221.231C126.098,220.026 124.747,217.824 124.747,215.304C124.747,211.494 127.836,208.406 131.646,208.406C135.456,208.406 138.546,211.494 138.546,215.304C138.546,217.906 137.105,220.17 134.98,221.345L134.98,242.72L142.501,247.013L134.112,256.822Z" style="fill:rgb(52,33,0);"/>
            <path d="M132.079,279.554C131.832,278.58 131.716,277.58 131.778,276.576C131.848,275.466 132.231,274.503 132.723,273.519C133.872,271.222 135.051,269.454 135.687,266.874L136.125,265.09L134.888,263.732C134.744,263.573 134.604,263.407 134.469,263.239L134.225,262.934L133.919,262.692C128.349,258.276 122.529,255.809 115.529,254.745C110.543,253.988 105.387,254.116 100.478,253.206C93.739,251.961 88.889,247.48 83.935,243.094L86.725,250.832L86.539,250.626L86.613,250.832L83.567,247.47L85.217,252.45C87.77,260.145 92.964,269.368 98.441,275.229C101.275,278.259 104.578,280.913 108.37,282.643C115.312,285.81 122.907,286.503 130.043,283.588L132.814,282.456L132.079,279.554Z" style="fill:rgb(52,33,0);"/>
            <path d="M88.499,251.405L88.485,251.366C101.33,262.19 115.197,252.246 131.781,265.389C131.957,265.61 132.146,265.833 132.343,266.051C131.406,269.857 128.735,272.177 128.367,276.056C123.228,262.597 98.665,267.986 88.499,251.405Z" style="fill:rgb(131,89,0);"/>
            <path d="M123.59,281.424C108.67,283.775 98.662,272.662 92.159,259.866C103.52,269.672 113.496,266.327 121.889,274.778C120.269,274.138 117.696,273.161 116.281,272.825C114.108,272.309 113.96,272.309 113.96,272.309C113.96,272.309 119.043,274.666 121.289,276.581C123.537,278.497 124.015,279.012 124.015,279.012L115.765,276.693C115.765,276.693 119.891,278.386 122.1,280.154C122.73,280.659 123.217,281.08 123.59,281.424Z" style="fill:rgb(77,53,0);"/>
            <path d="M198.042,279.554C198.289,278.58 198.404,277.58 198.341,276.576C198.271,275.466 197.889,274.503 197.397,273.519C196.249,271.222 195.069,269.454 194.433,266.874L193.995,265.09L195.232,263.732C195.376,263.573 195.517,263.407 195.652,263.239L195.896,262.934L196.201,262.692C201.77,258.276 207.592,255.809 214.592,254.745C219.578,253.988 224.733,254.116 229.643,253.206C236.38,251.961 241.229,247.48 246.183,243.096L243.393,250.832L246.619,247.274L244.901,252.45C242.349,260.145 237.155,269.368 231.677,275.229C228.845,278.259 225.541,280.913 221.75,282.643C214.809,285.81 207.214,286.503 200.076,283.588L197.306,282.456L198.042,279.554Z" style="fill:rgb(52,33,0);"/>
            <path d="M241.62,251.405L241.634,251.366C228.791,262.19 214.922,252.246 198.339,265.389C198.163,265.61 197.974,265.833 197.776,266.051C198.714,269.857 201.384,272.177 201.753,276.056C206.893,262.597 231.454,267.986 241.62,251.405Z" style="fill:rgb(131,89,0);"/>
            <path d="M206.529,281.424C221.451,283.775 231.458,272.662 237.961,259.866C226.601,269.672 216.625,266.327 208.23,274.778C209.852,274.138 212.424,273.161 213.839,272.825C216.012,272.309 216.16,272.309 216.16,272.309C216.16,272.309 211.077,274.666 208.831,276.581C206.584,278.497 206.105,279.012 206.105,279.012L214.355,276.693C214.355,276.693 210.229,278.386 208.02,280.154C207.389,280.659 206.902,281.08 206.529,281.424Z" style="fill:rgb(77,53,0);"/>
            <path d="M164.088,332.848C155.978,331.314 148.706,325.563 146.487,318.488C142.415,315.741 135.957,310.272 134.378,305.73C132.936,301.584 132.361,297.36 132.451,293.023C129.281,288.788 126.878,283.728 127.213,278.334C127.54,273.107 130.739,270.483 132.067,265.88C131.452,265.157 130.922,264.415 130.532,263.833C129.375,262.119 129.47,258.404 129.718,256.284C130.149,252.594 136.851,243.934 140.396,242.752C143.319,241.778 148.661,242.753 151.383,244.903C155.681,244.188 162.581,244.285 165.058,244.285L165.063,244.285C167.538,244.285 174.439,244.188 178.736,244.903C181.458,242.753 186.801,241.778 189.724,242.752C193.268,243.934 199.969,252.594 200.402,256.284C200.65,258.404 200.743,262.119 199.587,263.833C199.197,264.415 198.668,265.157 198.053,265.88C199.381,270.483 202.58,273.107 202.906,278.334C203.243,283.728 200.839,288.788 197.669,293.023C197.759,297.36 197.183,301.584 195.742,305.73C194.163,310.272 187.704,315.741 183.633,318.488C181.408,325.579 174.51,331.281 166.021,332.853C165.351,332.977 164.758,332.975 164.088,332.848Z" style="fill:rgb(52,33,0);"/>
            <path d="M146.426,314.421C144.026,312.659 139.197,308.139 137.931,304.496C136.663,300.85 136.382,298.144 136.246,295.826C138.567,297.527 142.877,300.356 146.057,300.512C146.057,300.512 141.702,298.006 137.351,293.075C136.96,292.631 136.583,292.187 136.226,291.744L136.15,291.657C132.565,287.169 130.707,282.75 130.966,278.568C131.257,273.926 134.449,272.184 135.9,266.092C136.012,265.619 136.134,265.157 136.3,264.82L136.208,264.748C137.411,261.682 138.258,258.682 140.252,255.792C138.277,258.067 136.297,260.339 134.597,262.998C133.482,261.633 133.229,258.639 133.454,256.722C133.679,254.804 139.845,246.9 141.585,246.32C143.325,245.741 150.406,248.974 150.406,248.974C151.334,248.356 158.197,248.047 165.059,248.047C171.922,248.047 178.786,248.356 179.712,248.974C179.712,248.974 186.167,245.602 187.906,246.181C189.646,246.76 196.77,255.161 196.994,257.077C197.219,258.996 196.637,261.633 195.522,262.998C193.823,260.339 191.843,258.067 189.868,255.792C191.86,258.682 192.709,261.682 193.91,264.748L193.82,264.82C193.985,265.157 194.107,265.619 194.22,266.092C195.669,272.184 198.862,273.926 199.151,278.568C199.412,282.75 197.555,287.169 193.97,291.657L193.893,291.744C193.536,292.187 193.159,292.631 192.769,293.075C188.416,298.006 184.063,300.512 184.063,300.512C187.242,300.356 191.552,297.527 193.873,295.826C193.738,298.144 193.429,300.928 192.188,304.496C190.947,308.061 186.159,312.609 183.79,314.399C182.628,311.287 181.612,305.238 179.965,304.052L179.795,313.017L179.064,316.322L165.059,319.064C163.508,319.075 162.291,318.881 161.261,318.687C158.732,318.211 157.332,317.735 154.899,320.301C152.499,318.003 150.287,319.791 149.996,316.131L151.843,317.039L150.683,313.017L150.513,304.052C148.828,305.264 147.547,311.319 146.426,314.421Z" style="fill:rgb(131,89,0);"/>
            <path d="M165.059,282.165C164.281,282.107 162.686,282.497 160.508,285.644C157.351,290.205 151.386,296.257 142.089,297.484C140.676,297.671 139.142,297.767 137.788,297.726C136.681,297.695 135.737,297.37 134.842,296.713L130.957,293.871C130.139,293.27 129.582,292.556 129.197,291.616C127.844,288.296 126.89,283.931 126.135,281.402C125.424,279.019 126.432,276.531 128.603,275.315C132.99,272.86 140.092,268.752 142.967,266.347C147.263,262.752 150.071,262.139 150.071,262.139L152.878,258.717L158.14,256.613L159.368,244.182L161.298,243.042C161.298,243.042 161.321,241.154 162.263,240.937C162.662,240.845 163.862,240.798 165.063,240.798C166.262,240.798 167.461,240.845 167.861,240.937C168.803,241.154 168.826,243.042 168.826,243.042L170.756,244.182L171.983,256.613L177.246,258.717L180.053,262.139C180.053,262.139 182.861,262.752 187.157,266.347C190.032,268.752 197.134,272.86 201.521,275.315C203.692,276.531 204.7,279.019 203.988,281.402C203.234,283.931 202.279,288.296 200.926,291.616C200.543,292.556 199.984,293.27 199.166,293.871L195.281,296.713C194.387,297.37 193.444,297.695 192.335,297.726C190.982,297.767 189.449,297.671 188.034,297.484C178.737,296.257 172.774,290.205 169.616,285.644C167.437,282.497 165.842,282.107 165.064,282.165L165.063,282.165L165.059,282.165Z" style="fill:rgb(0,33,74);fill-rule:nonzero;"/>
            <path d="M165.046,258.399C167.382,258.399 169.277,260.293 169.277,262.629C169.277,264.966 167.382,266.861 165.046,266.861C162.709,266.861 160.815,264.966 160.815,262.629C160.815,260.293 162.709,258.399 165.046,258.399Z" style="fill:rgb(0,208,24);"/>
            <path d="M184.735,291.386C188.421,291.386 191.409,288.398 191.409,284.711C191.409,281.026 188.421,278.038 184.735,278.038C181.049,278.038 178.061,281.026 178.061,284.711C178.061,288.398 181.049,291.386 184.735,291.386Z" style="fill:rgb(0,208,24);"/>
            <g transform="matrix(0.480034,0,0,0.480059,157.919,255.125)">
                <clipPath id="_clip1">
                    <path d="M27.667,15.892C27.581,12.482 26.163,9.405 23.915,7.157C21.598,4.841 18.39,3.402 14.847,3.402C11.305,3.402 8.097,4.841 5.779,7.16C3.533,9.405 2.114,12.482 2.027,15.892C1.983,15.452 1.958,15.004 1.958,14.554C1.958,10.997 3.404,7.774 5.733,5.441C8.064,3.11 11.289,1.664 14.847,1.664C18.405,1.664 21.632,3.11 23.961,5.439C26.29,7.774 27.736,10.997 27.736,14.554C27.736,15.004 27.713,15.452 27.667,15.892Z"/>
                </clipPath>
                <g clip-path="url(#_clip1)">
                    <rect x="1.958" y="1.664" width="25.777" height="14.227" style="fill:rgb(128,128,128);fill-opacity:0;"/>
                </g>
            </g>
            <g transform="matrix(0.480024,0,0,0.480053,155.039,267.125)">
                <clipPath id="_clip2">
                    <path d="M20.859,17.792C14.566,17.792 8.272,12.417 1.258,1.644C8.925,10.526 15.012,14.942 21.034,14.942C27.08,14.942 33.057,10.493 40.49,1.644C33.465,12.401 27.163,17.792 20.859,17.792Z"/>
                </clipPath>
                <g clip-path="url(#_clip2)">
                    <rect x="1.258" y="1.644" width="39.231" height="16.148" style="fill:rgb(128,128,128);fill-opacity:0;"/>
                </g>
            </g>
            <path d="M145.385,291.386C149.071,291.386 152.058,288.398 152.058,284.711C152.058,281.026 149.071,278.038 145.385,278.038C141.698,278.038 138.711,281.026 138.711,284.711C138.711,288.398 141.698,291.386 145.385,291.386Z" style="fill:rgb(0,208,24);"/>
            <g transform="matrix(0.480017,0,0,0.480072,151.199,260.405)">
                <clipPath id="_clip3">
                    <path d="M50.392,12.806L52.965,1.023L56.498,5.791L50.392,12.806ZM7.356,12.806L1.25,5.791L4.783,1.023L7.356,12.806Z"/>
                </clipPath>
                <g clip-path="url(#_clip3)">
                    <rect x="1.25" y="1.023" width="55.248" height="11.784" style="fill:rgb(128,128,128);fill-opacity:0;"/>
                </g>
            </g>
            <g transform="matrix(0.480039,0,0,0.480039,158.879,244.085)">
                <clipPath id="_clip4">
                    <path d="M24.231,24.829L20.811,21.807L20.067,1.308L22.065,3.077L24.231,24.829ZM1.517,24.829L3.685,3.077L5.681,1.308L4.939,21.807L1.517,24.829Z"/>
                </clipPath>
                <g clip-path="url(#_clip4)">
                    <rect x="1.517" y="1.308" width="22.715" height="23.521" style="fill:rgb(128,128,128);fill-opacity:0;"/>
                </g>
            </g>
            <g transform="matrix(0.480036,0,0,0.480062,138.719,278.645)">
                <clipPath id="_clip5">
                    <path d="M13.928,14.282C7.82,14.282 1.692,12.207 3.475,8.105C5.223,4.091 9.226,1.285 13.886,1.285C18.505,1.285 22.48,4.043 24.25,8.001C26.127,12.205 20.038,14.282 13.928,14.282Z"/>
                </clipPath>
                <g clip-path="url(#_clip5)">
                    <rect x="3.161" y="1.285" width="21.435" height="12.996" style="fill:rgb(128,128,128);fill-opacity:0;"/>
                </g>
            </g>
            <g transform="matrix(0.480056,0,0,0.480091,160.799,258.485)">
                <clipPath id="_clip6">
                    <path d="M8.945,9.357C5.168,9.357 1.379,8.073 2.481,5.539C3.562,3.058 6.037,1.319 8.92,1.319C11.776,1.319 14.232,3.027 15.329,5.474C16.488,8.073 12.724,9.357 8.945,9.357Z"/>
                </clipPath>
                <g clip-path="url(#_clip6)">
                    <rect x="2.287" y="1.319" width="13.256" height="8.038" style="fill:rgb(128,128,128);fill-opacity:0;"/>
                </g>
            </g>
            <g transform="matrix(0.480014,0,0,0.480015,130.079,263.285)">
                <clipPath id="_clip7">
                    <path d="M37.028,63.958C44.365,61.827 49.834,55.319 50.419,47.448C50.557,46.53 50.626,45.592 50.626,44.636C50.626,39.442 48.517,34.736 45.117,31.336C43.057,29.274 40.518,27.689 37.678,26.755L37.632,26.743C35.789,26.174 33.905,25.891 32.022,25.891C30.137,25.891 28.253,26.174 26.41,26.743L26.366,26.755C23.526,27.689 20.987,29.274 18.922,31.336C15.522,34.736 13.414,39.442 13.414,44.636C13.414,45.592 13.485,46.53 13.625,47.448C14.21,55.319 19.679,61.827 27.012,63.958C23.585,63.031 20.52,61.221 18.081,58.781C14.46,55.163 12.22,50.161 12.22,44.636C12.22,30.795 22.12,23.874 32.022,23.874C41.922,23.874 51.821,30.795 51.821,44.636C51.821,50.161 49.582,55.163 45.961,58.781C43.522,61.221 40.457,63.031 37.028,63.958ZM9.885,53.877C9.427,53.877 4.464,42.013 2.985,37.582C1.294,32.509 1.394,30.222 1.394,30.222L12.158,22.174C10.012,25.226 8.866,28.989 8.344,32.849C7.979,34.707 7.787,36.638 7.787,38.626C7.787,40.338 7.929,42.013 8.204,43.64C8.583,47.886 9.339,51.403 9.779,53.082C9.925,53.632 9.952,53.877 9.885,53.877ZM55.165,41.982C56.773,27.524 47.219,11.806 31.568,11.806C29.918,11.806 28.305,11.995 26.751,12.358C31.38,8.048 35.124,4.289 41.355,1.712C49.709,11.666 56.784,28.97 68.833,29.953C68.833,29.953 64.886,30.537 60.709,33.901L60.254,34.303C59.357,35.345 58.588,36.313 57.921,37.224C56.971,38.653 56.03,40.317 55.165,41.982Z"/>
                </clipPath>
                <g clip-path="url(#_clip7)">
                    <rect x="1.393" y="1.712" width="67.441" height="62.246" style="fill:rgb(128,128,128);fill-opacity:0;"/>
                </g>
            </g>
            <path d="M164.705,290.137C158.95,296.978 148.992,297.085 146.451,306.91C145.188,311.795 145.929,314.013 145.929,314.013C145.929,314.013 147.921,315.587 148.349,315.222C148.778,314.859 150.68,307.346 151.108,306.983C151.537,306.618 155.593,301.441 156.232,301.003C156.872,300.567 159.428,298.817 160.421,298.232C161.413,297.649 162.831,296.773 163.468,296.409C164.025,296.09 164.96,295.494 165.189,295.347L165.205,295.358L165.22,295.347C165.45,295.494 166.385,296.09 166.941,296.409C167.579,296.773 168.996,297.649 169.989,298.232C170.982,298.817 173.539,300.567 174.177,301.003C174.816,301.441 178.872,306.618 179.301,306.983C179.73,307.346 181.631,314.859 182.06,315.222C182.488,315.587 184.481,314.013 184.481,314.013C184.481,314.013 185.221,311.795 183.958,306.91C181.418,297.085 171.459,296.978 165.704,290.137L165.22,294.81L165.205,294.659L165.189,294.81L164.705,290.137Z" style="fill:rgb(52,33,0);"/>
            <path d="M165.049,288.406C164.468,289.624 162.177,293.92 158.765,296.06C154.82,298.536 153.855,298.867 152.123,300.829C146.828,306.818 148.151,317.542 153.924,322.787C158.183,326.659 161.577,328.585 165.079,328.85C168.562,328.566 171.94,326.634 176.174,322.787C181.946,317.542 183.271,306.818 177.977,300.829C176.244,298.867 175.278,298.536 171.333,296.06C167.922,293.92 165.63,289.624 165.049,288.406Z" style="fill:rgb(188,167,121);"/>
            <path d="M165.203,300.73C173.638,300.73 175.377,302.743 177.016,308.383C177.612,310.432 177.723,313.092 176.05,314.72C174.239,316.482 168.778,319.388 166.315,320.781L165.203,321.411L164.091,320.781C161.627,319.387 156.169,316.483 154.357,314.72C152.683,313.092 152.796,310.432 153.392,308.383C155.031,302.741 156.761,300.73 165.203,300.73Z" style="fill:rgb(52,33,0);"/>
            <path d="M150.18,320.175C155.219,319.616 160.229,319.336 165.206,319.336C170.223,319.345 175.23,319.622 180.225,320.175L179.892,323.852C174.986,323.308 170.089,323.036 165.206,323.036C160.283,323.043 155.388,323.311 150.527,323.852L150.18,320.175Z" style="fill:rgb(52,33,0);"/>
            <g transform="matrix(0.480027,0,0,0.480082,156.479,303.125)">
                <clipPath id="_clip8">
                    <path d="M18.247,10.327C9.691,10.327 1.1,8.903 3.223,6.091C5.687,2.839 9.699,1.552 18.172,1.552C26.586,1.552 30.607,2.82 33.079,6.03C35.302,8.907 26.792,10.327 18.247,10.327Z"/>
                </clipPath>
                <g clip-path="url(#_clip8)">
                    <rect x="2.896" y="1.552" width="30.542" height="8.776" style="fill:rgb(128,128,128);fill-opacity:0;"/>
                </g>
            </g>
            <g transform="matrix(0.48005,0,0,0.480027,126.719,277.685)">
                <clipPath id="_clip9">
                    <path d="M18.256,35.583C18.256,35.583 13.574,32.309 10.836,29.963C8.47,27.936 8.595,27.217 7.543,24.236C5.331,17.961 1.475,6.175 1.625,4.566C1.829,2.454 4.956,1.421 4.956,1.421C6.329,10.551 11.338,22.826 18.256,35.583Z"/>
                </clipPath>
                <g clip-path="url(#_clip9)">
                    <rect x="1.621" y="1.421" width="16.636" height="34.163" style="fill:rgb(128,128,128);fill-opacity:0;"/>
                </g>
            </g>
            <g transform="matrix(0.480036,0,0,0.480062,178.079,278.645)">
                <clipPath id="_clip10">
                    <path d="M14.105,14.204C7.995,14.204 1.867,12.13 3.65,8.028C5.398,4.014 9.403,1.21 14.061,1.21C18.68,1.21 22.655,3.968 24.427,7.926C26.302,12.128 20.215,14.204 14.105,14.204Z"/>
                </clipPath>
                <g clip-path="url(#_clip10)">
                    <rect x="3.336" y="1.21" width="21.437" height="12.994" style="fill:rgb(128,128,128);fill-opacity:0;"/>
                </g>
            </g>
            <g transform="matrix(0.48005,0,0,0.480027,193.919,277.685)">
                <clipPath id="_clip11">
                    <path d="M1.939,35.76C8.857,23.005 13.865,10.729 15.24,1.6C15.24,1.6 18.367,2.633 18.571,4.743C18.721,6.354 14.863,18.141 12.653,24.417C11.599,27.394 11.726,28.115 9.359,30.142C6.622,32.486 1.939,35.76 1.939,35.76Z"/>
                </clipPath>
                <g clip-path="url(#_clip11)">
                    <rect x="1.939" y="1.6" width="16.636" height="34.161" style="fill:rgb(128,128,128);fill-opacity:0;"/>
                </g>
            </g>
            <g transform="matrix(0.480014,0,0,0.480015,166.559,263.285)">
                <clipPath id="_clip12">
                    <path d="M42.859,63.881C50.194,61.75 55.663,55.242 56.25,47.371C56.388,46.453 56.457,45.515 56.457,44.561C56.457,39.365 54.35,34.659 50.951,31.257C48.888,29.197 46.347,27.61 43.505,26.678L43.461,26.666C41.617,26.097 39.736,25.814 37.851,25.814C35.968,25.814 34.084,26.097 32.239,26.666L32.195,26.678C29.355,27.61 26.818,29.197 24.753,31.257C21.356,34.659 19.247,39.365 19.247,44.561C19.247,45.515 19.318,46.453 19.456,47.371C20.041,55.242 25.508,61.75 32.845,63.881C29.416,62.954 26.351,61.146 23.914,58.704C20.293,55.086 18.052,50.082 18.052,44.561C18.049,30.718 27.951,23.797 37.851,23.797C47.753,23.797 57.652,30.718 57.652,44.561C57.652,50.082 55.413,55.086 51.792,58.704C49.355,61.146 46.288,62.954 42.859,63.881ZM59.988,53.8C59.921,53.8 59.95,53.555 60.094,53.005C60.534,51.325 61.29,47.809 61.669,43.561C61.942,41.936 62.088,40.261 62.088,38.547C62.088,36.563 61.894,34.63 61.531,32.772C61.004,28.912 59.859,25.149 57.713,22.097L68.481,30.145C68.481,30.145 68.577,32.432 66.888,37.501C65.408,41.936 60.448,53.8 59.988,53.8ZM14.71,41.905C13.843,40.24 12.902,38.576 11.954,37.149C11.287,36.238 10.516,35.268 9.618,34.226L9.162,33.826C4.987,30.459 1.042,29.876 1.042,29.876C13.089,28.893 20.162,11.589 28.518,1.635C34.747,4.212 38.493,7.971 43.12,12.281C41.567,11.918 39.955,11.727 38.305,11.727C22.653,11.727 13.102,27.447 14.71,41.905Z"/>
                </clipPath>
                <g clip-path="url(#_clip12)">
                    <rect x="1.042" y="1.635" width="67.441" height="62.246" style="fill:rgb(128,128,128);fill-opacity:0;"/>
                </g>
            </g>
        </g>
        <g transform="matrix(1.05781,0,0,1.15662,103.998,264.315)">
            <text x="1418.99px" y="263.595px" style="font-family:'Helvetica-Bold', 'Helvetica';font-weight:700;font-size:36px;fill:rgb(0,33,74);">®</text>
        </g>
    </g>
</svg>
